<svg width="39" height="39" viewBox="0 0 39 39" fill="none" xmlns="http://www.w3.org/2000/svg">
<circle cx="19.3413" cy="19.6586" r="19.3413" fill="#A677C4"/>
<g clip-path="url(#clip0_866_11)">
<path d="M21.4541 8.94006H17.3481C13.0475 8.94006 9.54858 12.4381 9.54858 16.7379V20.4367C9.54858 23.6388 11.5162 26.5166 14.4748 27.6886V30.0865C14.4748 30.249 14.5705 30.396 14.7191 30.4617C14.7725 30.4855 14.8291 30.497 14.8854 30.497C14.9851 30.497 15.0841 30.4604 15.1608 30.3907L17.5414 28.2346H21.4541C25.7548 28.2346 29.2536 24.7365 29.2536 20.4367V16.7379C29.2536 12.4381 25.7548 8.94006 21.4541 8.94006ZM28.4326 20.4367C28.4326 24.2837 25.3024 27.4136 21.4541 27.4136H17.383C17.2812 27.4136 17.1831 27.4513 17.1075 27.5199L15.2959 29.1607V27.4041C15.2959 27.23 15.1863 27.0749 15.0221 27.0174C12.2396 26.0334 10.3696 23.3888 10.3696 20.4367V16.7379C10.3696 12.8909 13.5003 9.76111 17.3481 9.76111H21.4541C25.3024 9.76111 28.4326 12.8909 28.4326 16.7379V20.4367Z" fill="white"/>
<path d="M24.8264 21.4581L22.3034 19.8193C22.0275 19.6399 21.6991 19.5791 21.3776 19.6456C21.0558 19.7134 20.7791 19.9035 20.5997 20.1806L20.4811 20.3628C19.3891 20.002 18.185 19.541 17.4641 17.4543L17.7626 17.1948C18.2749 16.7494 18.3287 15.9702 17.8833 15.4571L15.9095 13.1865C15.7609 13.0153 15.5014 12.9977 15.3302 13.1459L14.0909 14.2231C13.0038 15.1681 13.5116 16.5659 13.6787 17.0253C13.6861 17.0458 13.6951 17.0655 13.7058 17.0848C13.7489 17.162 14.7781 18.9987 16.4403 20.6917C18.1091 22.3916 21.1219 23.9615 21.2143 24.007C21.5583 24.2304 21.9454 24.3375 22.3284 24.3375C23.0008 24.3375 23.6601 24.0079 24.0534 23.4036L24.9475 22.0267C25.0707 21.8358 25.0165 21.5817 24.8264 21.4581ZM23.3646 22.9561C22.9947 23.5259 22.2303 23.6876 21.6268 23.2985C21.5969 23.2829 18.6037 21.7241 17.0261 20.1169C15.5515 18.6148 14.5724 16.9461 14.439 16.7133C14.1139 15.8015 14.1713 15.2412 14.6295 14.843L15.5593 14.035L17.2638 15.9957C17.4153 16.1698 17.3976 16.4243 17.2244 16.5749L16.7207 17.0126C16.5979 17.1193 16.5495 17.288 16.5975 17.4432C17.4563 20.2339 19.1263 20.782 20.3456 21.1822L20.5233 21.2409C20.7011 21.3009 20.8957 21.2323 20.9975 21.0755L21.2886 20.6272C21.3485 20.5344 21.4405 20.4716 21.5472 20.449C21.6543 20.4261 21.7635 20.4474 21.8563 20.5077L24.0354 21.9228L23.3646 22.9561Z" fill="white"/>
<path d="M20.3383 15.6097C20.1199 15.5469 19.8929 15.6737 19.8309 15.8921C19.769 16.1101 19.8954 16.3372 20.1134 16.3991C20.7251 16.5732 21.2123 17.0613 21.3848 17.6734C21.4357 17.854 21.6003 17.9727 21.7797 17.9727C21.8166 17.9727 21.854 17.9677 21.8913 17.9575C22.1093 17.8959 22.2366 17.6693 22.175 17.4509C21.9258 16.5666 21.2218 15.8609 20.3383 15.6097Z" fill="white"/>
<path d="M23.4623 18.0615C23.4992 18.0615 23.5366 18.0566 23.5739 18.0463C23.7923 17.9847 23.9192 17.7577 23.8576 17.5397C23.3732 15.8225 22.0066 14.453 20.2906 13.9645C20.0726 13.9017 19.8456 14.0294 19.7836 14.2474C19.7216 14.4653 19.848 14.6924 20.066 14.7543C21.5098 15.1649 22.6597 16.318 23.0673 17.7626C23.1187 17.9433 23.2829 18.0615 23.4623 18.0615Z" fill="white"/>
<path d="M20.1137 12.0526C19.8953 11.9898 19.6683 12.1166 19.6063 12.3354C19.5443 12.5534 19.6708 12.7804 19.8888 12.8424C22.3351 13.5383 24.2838 15.4915 24.9743 17.9395C25.0252 18.1201 25.1898 18.2387 25.3692 18.2387C25.4062 18.2387 25.4435 18.2338 25.4809 18.2235C25.6989 18.162 25.8262 17.9349 25.7646 17.717C24.9973 14.9964 22.8322 12.8264 20.1137 12.0526Z" fill="white"/>
</g>
<defs>
<clipPath id="clip0_866_11">
<rect width="21.5569" height="21.5569" fill="white" transform="translate(8.6228 8.94006)"/>
</clipPath>
</defs>
</svg>
