<?xml version="1.0" encoding="iso-8859-1"?>
<!-- Uploaded to: SVG Repo, www.svgrepo.com, Generator: SVG Repo Mixer Tools -->
<svg fill="#000000" height="800px" width="800px" version="1.1" id="Layer_1" xmlns="http://www.w3.org/2000/svg" xmlns:xlink="http://www.w3.org/1999/xlink" 
	 viewBox="0 0 512.002 512.002" xml:space="preserve">
<g>
	<g>
		<path d="M147.085,35.088c-3.085-8.332-9.466-13.484-17.157-13.484c-7.693,0-14.074,5.151-17.158,13.484
			c-8.332,3.083-13.483,9.466-13.483,17.157c0,7.691,5.151,14.074,13.483,17.157c3.085,8.333,9.466,13.484,17.157,13.484
			c7.691,0,14.074-5.151,17.157-13.484c8.333-3.085,13.484-9.466,13.484-17.157C160.569,44.553,155.416,38.171,147.085,35.088z
			 M139.254,55.359c-3.147,0.606-5.609,3.067-6.214,6.214c-0.825,4.29-2.667,5.64-3.114,5.64c-0.447,0-2.288-1.351-3.114-5.64
			c-0.606-3.147-3.067-5.609-6.214-6.214c-4.289-0.825-5.639-2.667-5.639-3.114c0.001-0.447,1.351-2.288,5.64-3.114
			c3.147-0.606,5.609-3.067,6.214-6.214c0.826-4.289,2.667-5.641,3.114-5.641c0.447,0,2.287,1.351,3.113,5.64
			c0.606,3.147,3.067,5.609,6.214,6.215c4.29,0.826,5.64,2.667,5.64,3.114S143.544,54.533,139.254,55.359z"/>
	</g>
</g>
<g>
	<g>
		<path d="M412.313,59.982c-3.085-8.333-9.467-13.483-17.158-13.483c-7.69,0-14.073,5.152-17.157,13.484
			c-8.332,3.083-13.482,9.465-13.483,17.156c-0.001,7.692,5.15,14.074,13.483,17.157c3.083,8.333,9.466,13.484,17.158,13.484
			c7.691,0,14.074-5.151,17.157-13.483c8.333-3.085,13.484-9.467,13.483-17.158C425.796,69.448,420.644,63.067,412.313,59.982z
			 M404.482,80.251c-3.147,0.606-5.608,3.067-6.214,6.214c-0.825,4.289-2.667,5.639-3.113,5.639c-0.448,0-2.288-1.351-3.113-5.639
			c-0.606-3.147-3.068-5.609-6.214-6.215c-4.289-0.826-5.64-2.667-5.64-3.114s1.349-2.285,5.638-3.111
			c3.148-0.606,5.609-3.067,6.215-6.215c0.824-4.289,2.666-5.64,3.113-5.64c0.448,0,2.288,1.351,3.114,5.64
			c0.606,3.147,3.068,5.608,6.215,6.214c4.288,0.825,5.639,2.667,5.639,3.113C410.124,77.585,408.773,79.426,404.482,80.251z"/>
	</g>
</g>
<g>
	<g>
		<path d="M420.942,214.356c14.512-14.384,19.714-35.4,13.578-54.841c-0.732-2.329-2.04-4.471-3.775-6.189
			c-1.729-1.715-3.874-3.002-6.2-3.722c-5.346-1.657-10.879-2.497-16.447-2.497c-6.724,0-13.261,1.213-19.374,3.51v-20.331
			c0-6.587-5.375-11.946-11.982-11.946c-1.444,0-2.859,0.399-4.091,1.153l-0.509,0.311V109.03c0-5.969-4.867-10.824-10.851-10.824
			c-1.444,0-2.859,0.399-4.091,1.152l-11.099,6.793c-4.177-10.037-10.558-17.651-18.186-21.396V48.104
			c0-6.587-5.375-11.946-11.982-11.946c-1.444,0-2.859,0.399-4.091,1.153l-0.509,0.311V26.849c0-5.969-4.867-10.824-10.851-10.824
			c-1.444,0-2.859,0.399-4.091,1.152l-11.096,6.792C279.255,9.456,268.611,0,256.242,0c-12.37,0-23.013,9.456-29.053,23.97
			l-11.096-6.792c-1.231-0.753-2.647-1.153-4.091-1.153c-5.984,0-10.852,4.856-10.852,10.824v10.771l-0.507-0.31
			c-1.231-0.753-2.647-1.153-4.091-1.153c-6.607,0-11.983,5.359-11.983,11.946V85.88c-6.714,4.035-12.326,11.154-16.121,20.272
			l-11.1-6.794c-1.231-0.753-2.647-1.153-4.091-1.153c-5.984,0-10.852,4.856-10.852,10.824v10.771l-0.507-0.31
			c-1.231-0.753-2.647-1.153-4.091-1.153c-6.607,0-11.983,5.359-11.983,11.946v21.255c-6.874-3.091-14.366-4.731-22.107-4.731
			c-5.539,0-11.045,0.851-16.358,2.528c-2.326,0.732-4.466,2.039-6.189,3.776c-1.714,1.729-3.001,3.872-3.722,6.199
			c-6.061,19.555-0.911,40.698,13.439,55.175c0.499,0.504,1.011,0.989,1.528,1.47c-8.467,8.531-13.704,20.231-13.704,33.128
			c0,24.441,18.79,44.601,42.775,46.986l82.962,106.552c-2.813,2.336-4.608,5.852-4.608,9.78v21.521
			c0,3.157,1.165,6.042,3.079,8.268l-6.448,6.396c-3.225,3.198-4.49,7.908-3.298,12.309c0.044,0.161,0.113,0.313,0.163,0.472
			l-16.035,24.118c-3.501,5.267-3.803,11.993-0.787,17.554c3.002,5.526,8.786,8.96,15.095,8.96h129.248
			c6.31,0,12.094-3.434,15.097-8.963c3.017-5.558,2.715-12.283-0.788-17.551l-16.345-24.584c0-0.001,0.001-0.003,0.001-0.004
			c1.201-4.387-0.063-9.103-3.295-12.307l-6.45-6.398c1.915-2.227,3.08-5.113,3.08-8.269v-21.521c0-3.816-1.701-7.237-4.377-9.571
			l17.776-22.908c2.653-3.42,2.031-8.342-1.388-10.995c-3.416-2.652-8.34-2.033-10.995,1.388l-22.781,29.356h-68.376
			l-82.055-105.389c6.96-2.09,13.382-5.741,18.729-10.693c8.726,8.081,20.307,12.716,32.436,12.716c0.144,0,0.287-0.008,0.432-0.01
			c1.095,8.751,5.053,16.844,11.439,23.173l43.065,42.723c2.656,2.638,6.185,4.091,9.935,4.091c3.751,0,7.28-1.453,9.934-4.089
			l43.064-42.723c6.387-6.332,10.348-14.425,11.444-23.175c0.144,0.001,0.286,0.009,0.432,0.009c12.13,0,23.711-4.634,32.438-12.716
			c5.375,4.978,11.833,8.641,18.834,10.727l-39.513,50.92c-2.653,3.419-2.031,8.342,1.388,10.995
			c3.418,2.653,8.341,2.034,10.995-1.388l45.616-58.786c23.928-2.438,42.656-22.575,42.656-46.975
			c0-12.979-5.3-24.749-13.863-33.294C419.937,215.321,420.446,214.847,420.942,214.356z M215.515,415.347h80.972v15.631h-80.972
			V415.347z M300.727,455.984l-5.235,1.367c-2.733,0.714-4.871,2.843-5.594,5.575l-1.401,5.281l-21.731-21.554h24.553
			L300.727,455.984z M220.68,446.651h24.553l-21.728,21.554l-1.401-5.283c-0.724-2.731-2.862-4.861-5.595-5.575l-5.234-1.367
			L220.68,446.651z M208.124,471.359l1.545,5.824c1.137,4.304,4.553,7.746,8.829,8.957c4.377,1.239,9.189-0.008,12.415-3.209
			L256,458.047l25.086,24.883c3.192,3.167,7.923,4.419,12.268,3.253c4.334-1.163,7.833-4.645,8.975-8.99l1.546-5.832l2.625-0.685
			l15.615,23.487c0.471,1.207,0.053,1.928-1.256,2.164H191.612c-1.307-0.235-1.726-0.956-1.256-2.163l15.547-23.385L208.124,471.359
			z M380.405,174.173c7.412-7.348,17.248-11.395,27.693-11.395c3.906,0,7.793,0.578,11.56,1.719
			c4.229,13.747,0.506,28.561-9.75,38.726c-1.177,1.166-2.42,2.24-3.713,3.236c-4.25-2.02-8.848-3.424-13.677-4.112l2.698-2.675
			c3.073-3.047,3.095-8.009,0.048-11.082c-3.046-3.074-8.008-3.095-11.082-0.049l-13.435,13.319h-1.774
			C368.881,191.633,372.865,181.647,380.405,174.173z M356.468,118.183v11.214l-8.428,5.159c-3.692,2.26-4.854,7.083-2.592,10.776
			c2.259,3.693,7.084,4.853,10.774,2.593l16.828-10.3v22.093c-1.266,1.05-2.498,2.154-3.679,3.325
			c-4.684,4.643-8.388,9.981-11.059,15.732l-26.248-16.065l0.125-0.076c3.692-2.259,4.854-7.083,2.593-10.775
			c-2.26-3.692-7.084-4.85-10.776-2.593l-6.955,4.257l-9.162-5.607L356.468,118.183z M353.773,194.373
			c-0.329,2.475-0.497,4.976-0.482,7.489h-92.237c0-0.027-0.002-0.055-0.002-0.083v-64.156L353.773,194.373z M277.633,129.395
			v-11.213l24.406,14.938l-9.161,5.607L277.633,129.395z M317.052,97.854c5.727,0,11.872,6.304,15.494,16.595l-15.494,9.482
			l-15.491-9.481C305.181,104.162,311.324,97.854,317.052,97.854z M312.241,55.442v27.235c-6.79,1.389-12.884,5.691-17.752,12.071
			l-23.234-14.22L312.241,55.442z M295.659,36.002v11.213l-39.417,24.125l-9.161-5.607L295.659,36.002z M256.242,15.673
			c5.726,0,11.872,6.304,15.494,16.595l-15.494,9.482l-15.494-9.482C244.37,21.977,250.515,15.673,256.242,15.673z M216.824,36.001
			l24.407,14.938l-9.161,5.607l-15.246-9.332V36.001z M270.519,98.454c-4.886,1.053-8.56,5.393-8.56,10.576v10.771l-0.507-0.31
			c-1.232-0.753-2.647-1.153-4.091-1.153c-1.696,0-3.308,0.358-4.772,0.995v-10.303c0-5.968-4.868-10.824-10.851-10.824
			c-1.444,0-2.86,0.399-4.091,1.153l-11.099,6.793c-5.588-13.426-15.117-22.509-26.305-23.797V55.443L270.519,98.454z
			 M245.379,142.592v40.234l-32.868-20.117L245.379,142.592z M197.497,153.521l-9.161-5.607l48.577-29.732v11.213L197.497,153.521z
			 M197.497,97.854c5.727,0,11.872,6.304,15.494,16.595l-15.494,9.482l-15.491-9.481C185.628,104.161,191.771,97.854,197.497,97.854
			z M158.08,118.182l24.407,14.938l-9.161,5.607l-15.246-9.332V118.182z M92.344,164.199c3.705-1.14,7.532-1.718,11.375-1.718
			c10.309,0,20.023,4.072,27.352,11.468c7.468,7.534,11.424,17.597,11.363,27.912h-1.807l-13.105-13.221
			c-3.048-3.073-8.009-3.095-11.082-0.049c-3.074,3.047-3.096,8.009-0.049,11.082l2.7,2.724c-4.788,0.722-9.341,2.157-13.551,4.19
			c-1.223-0.97-2.401-2.009-3.518-3.137C91.816,193.158,88.122,178.139,92.344,164.199z M297.961,308.343l-41.962,41.629
			l-41.965-41.631c-4.593-4.553-7.123-10.599-7.123-17.027c0-6.428,2.53-12.476,7.123-17.029c4.611-4.571,10.747-7.089,17.276-7.089
			s12.667,2.517,17.278,7.088l1.892,1.876c3.055,3.028,7.98,3.028,11.035,0l1.89-1.875c4.612-4.571,10.749-7.089,17.281-7.089
			c6.53,0,12.664,2.517,17.275,7.089c4.595,4.555,7.125,10.603,7.125,17.029C305.089,297.74,302.558,303.786,297.961,308.343z
			 M385.746,280.633c-10.337,0-20.077-5.007-26.056-13.395c-1.47-2.064-3.848-3.288-6.382-3.288s-4.91,1.226-6.381,3.288
			c-5.976,8.386-15.715,13.393-26.055,13.393c-0.535,0-1.064-0.04-1.593-0.067c-1.831-6.52-5.322-12.499-10.281-17.415
			c-7.566-7.499-17.62-11.63-28.31-11.63c-9.062,0-17.668,2.967-24.689,8.44c-7.021-5.472-15.626-8.44-24.688-8.44
			c-10.69,0-20.745,4.13-28.31,11.63c-4.964,4.921-8.456,10.908-10.286,17.437c-0.527,0.026-1.055,0.044-1.587,0.044
			c-10.338,0-20.079-5.007-26.055-13.393c-1.47-2.064-3.848-3.288-6.382-3.288s-4.912,1.226-6.382,3.289
			c-5.975,8.386-15.714,13.393-26.052,13.393c-17.573,0-31.87-14.153-31.87-31.55c0-17.396,14.297-31.549,31.87-31.549h45.107
			c4.328,0,7.837-3.509,7.837-7.837s-3.509-7.837-7.837-7.837h-13.252c0.06-14.39-5.482-28.429-15.909-38.946
			c-0.23-0.232-0.47-0.449-0.703-0.676v-24.617l103.88,63.579v0.659h-41.623c-4.328,0-7.837,3.509-7.837,7.837
			c0,4.328,3.509,7.837,7.837,7.837h181.991c17.572,0,31.869,14.152,31.869,31.549C417.616,266.48,403.318,280.633,385.746,280.633z
			"/>
	</g>
</g>
</svg>