<?xml version="1.0" encoding="iso-8859-1"?>
<!-- Uploaded to: SVG Repo, www.svgrepo.com, Generator: SVG Repo Mixer Tools -->
<!DOCTYPE svg PUBLIC "-//W3C//DTD SVG 1.1//EN" "http://www.w3.org/Graphics/SVG/1.1/DTD/svg11.dtd">
<svg fill="#000000" version="1.1" id="Capa_1" xmlns="http://www.w3.org/2000/svg" xmlns:xlink="http://www.w3.org/1999/xlink" 
	 width="800px" height="800px" viewBox="0 0 45.505 45.506"
	 xml:space="preserve">
<g>
	<g>
		<path d="M29.922,31.45c-1.06,6.213-6.483,10.956-12.994,10.956c-7.268,0-13.182-5.913-13.182-13.183
			c0-6.135,4.212-11.304,9.896-12.768c-0.133-0.87-0.201-1.758-0.201-2.663c0-0.159,0.003-0.318,0.007-0.477
			c-7.311,1.599-12.8,8.124-12.8,15.907c0,8.979,7.304,16.283,16.28,16.283c8.245,0,15.077-6.159,16.14-14.118
			c-0.635,0.069-1.277,0.105-1.929,0.105C30.731,31.493,30.326,31.479,29.922,31.45z"/>
		<path d="M42.265,15.852c-1.045-1.065-1.426-2.535-1.146-3.894c0.188-0.914-0.479-1.771-1.39-1.971
			c-1.118-0.246-2.179-0.809-3.04-1.688c-0.863-0.879-1.404-1.952-1.63-3.076c-0.183-0.915-1.024-1.597-1.942-1.427
			c-1.363,0.252-2.824-0.157-3.869-1.222c-0.424-0.433-0.738-0.933-0.943-1.464c-0.35-0.904-1.367-1.334-2.275-0.994
			c-5.979,2.235-10.103,8.281-9.413,15.181c0.68,6.792,6.185,12.317,12.974,13.018c6.832,0.704,12.833-3.309,15.142-9.177
			c0.355-0.904-0.062-1.937-0.967-2.292C43.215,16.631,42.703,16.299,42.265,15.852z M28.47,6.598c0.697,0,1.268,0.566,1.268,1.268
			c0,0.699-0.568,1.268-1.268,1.268c-0.7,0-1.27-0.568-1.27-1.268C27.203,7.164,27.77,6.598,28.47,6.598z M29.437,14.497
			c0,0.393-0.318,0.711-0.713,0.711s-0.712-0.318-0.712-0.711c0-0.395,0.317-0.714,0.712-0.714S29.437,14.103,29.437,14.497z
			 M24.048,21.578c-0.357,0-0.648-0.29-0.648-0.647c0-0.357,0.291-0.649,0.648-0.649s0.648,0.292,0.648,0.649
			C24.697,21.288,24.406,21.578,24.048,21.578z M23.4,16.566c-1.146,0-2.074-0.928-2.074-2.074s0.929-2.072,2.074-2.072
			s2.074,0.927,2.074,2.072C25.474,15.638,24.544,16.566,23.4,16.566z M23.667,9.465c-0.999,0-1.807-0.81-1.807-1.808
			s0.809-1.807,1.807-1.807c0.996,0,1.807,0.809,1.807,1.807S24.664,9.465,23.667,9.465z M29.037,26.027
			c-1.252,0-2.267-1.017-2.267-2.269c0-1.25,1.015-2.265,2.267-2.265s2.268,1.015,2.268,2.265
			C31.304,25.011,30.289,26.027,29.037,26.027z M34.736,19.857c-0.929,0-1.68-0.751-1.68-1.678c0-0.928,0.751-1.678,1.68-1.678
			c0.928,0,1.678,0.75,1.678,1.678C36.414,19.106,35.662,19.857,34.736,19.857z M35.215,12.367c-0.812,0-1.472-0.657-1.472-1.47
			s0.66-1.473,1.472-1.473c0.813,0,1.473,0.659,1.473,1.473C36.688,11.71,36.029,12.367,35.215,12.367z"/>
		<circle cx="12.327" cy="22.897" r="1.966"/>
		<circle cx="8.229" cy="30.716" r="1.492"/>
		<circle cx="16.978" cy="31.078" r="2.685"/>
		<circle cx="12.529" cy="37.294" r="2.027"/>
		<circle cx="24.021" cy="35.231" r="2.161"/>
	</g>
</g>
</svg>