<svg width="350" height="73" viewBox="0 0 350 73" fill="none" xmlns="http://www.w3.org/2000/svg">
<rect width="350" height="73" rx="36.5" fill="white"/>
<path d="M81.748 33.2486C80.4222 33.2486 79.2415 33.0207 78.2057 32.565C77.1759 32.1033 76.3621 31.4701 75.7643 30.6651C75.1725 29.8543 74.8677 28.9192 74.8499 27.8597H78.7207C78.7443 28.3036 78.8893 28.6942 79.1557 29.0316C79.4279 29.363 79.789 29.6205 80.2388 29.804C80.6886 29.9875 81.1946 30.0792 81.7569 30.0792C82.3428 30.0792 82.8607 29.9756 83.3105 29.7685C83.7603 29.5613 84.1125 29.2743 84.367 28.9073C84.6215 28.5404 84.7487 28.1172 84.7487 27.6378C84.7487 27.1525 84.6126 26.7234 84.3403 26.3505C84.074 25.9717 83.6893 25.6758 83.1862 25.4627C82.6891 25.2496 82.0972 25.1431 81.4106 25.1431H79.715V22.32H81.4106C81.9907 22.32 82.5026 22.2193 82.9465 22.0181C83.3963 21.8169 83.7455 21.5387 83.9941 21.1836C84.2427 20.8226 84.367 20.4023 84.367 19.9229C84.367 19.4672 84.2575 19.0677 84.0385 18.7244C83.8254 18.3752 83.5236 18.103 83.1329 17.9077C82.7482 17.7124 82.2984 17.6147 81.7835 17.6147C81.2627 17.6147 80.7862 17.7094 80.3542 17.8988C79.9221 18.0823 79.5759 18.3456 79.3155 18.6889C79.0551 19.0322 78.916 19.4347 78.8982 19.8963H75.2139C75.2317 18.8487 75.5306 17.9254 76.1106 17.1264C76.6906 16.3274 77.4718 15.703 78.4543 15.2532C79.4427 14.7975 80.5584 14.5696 81.8013 14.5696C83.056 14.5696 84.1539 14.7975 85.095 15.2532C86.036 15.7089 86.7669 16.3245 87.2878 17.0998C87.8145 17.8692 88.0749 18.7333 88.069 19.6921C88.0749 20.7101 87.7583 21.5594 87.1191 22.2401C86.4858 22.9207 85.6602 23.3527 84.6422 23.5362V23.6783C85.9798 23.8499 86.9978 24.3145 87.6962 25.0721C88.4005 25.8237 88.7497 26.7648 88.7437 27.8952C88.7497 28.931 88.4508 29.8513 87.8471 30.6562C87.2493 31.4612 86.4237 32.0945 85.3702 32.5561C84.3167 33.0178 83.1093 33.2486 81.748 33.2486ZM97.757 33.2663C96.3543 33.2663 95.1469 32.9822 94.1348 32.4141C93.1287 31.84 92.3533 31.0291 91.8088 29.9815C91.2643 28.928 90.9921 27.6822 90.9921 26.244C90.9921 24.8413 91.2643 23.6102 91.8088 22.5508C92.3533 21.4914 93.1198 20.6657 94.1082 20.0739C95.1025 19.482 96.2685 19.1861 97.606 19.1861C98.5057 19.1861 99.3431 19.3311 100.118 19.6211C100.9 19.9052 101.58 20.3343 102.16 20.9084C102.746 21.4825 103.202 22.2045 103.528 23.0746C103.853 23.9387 104.016 24.9508 104.016 26.1108V27.1495H92.5013V24.8058H100.456C100.456 24.2612 100.337 23.7789 100.101 23.3587C99.864 22.9384 99.5355 22.61 99.1153 22.3732C98.701 22.1306 98.2186 22.0092 97.6682 22.0092C97.0941 22.0092 96.5851 22.1424 96.1412 22.4087C95.7032 22.6692 95.36 23.0213 95.1114 23.4652C94.8628 23.9032 94.7355 24.3915 94.7296 24.93V27.1584C94.7296 27.8331 94.8539 28.4161 95.1025 28.9073C95.357 29.3986 95.7151 29.7773 96.1767 30.0437C96.6384 30.31 97.1858 30.4432 97.8191 30.4432C98.2393 30.4432 98.624 30.384 98.9732 30.2656C99.3224 30.1473 99.6213 29.9697 99.8699 29.733C100.118 29.4962 100.308 29.2062 100.438 28.8629L103.936 29.0938C103.758 29.9342 103.394 30.6681 102.844 31.2955C102.299 31.9169 101.595 32.4022 100.731 32.7514C99.8729 33.0947 98.8815 33.2663 97.757 33.2663ZM113.009 37.6342V14.8182H116.782V37.6342H113.009ZM113.009 33.2663C111.962 33.2663 111.006 33.0977 110.142 32.7603C109.277 32.417 108.532 31.9347 107.904 31.3132C107.277 30.6858 106.792 29.9431 106.448 29.0849C106.105 28.2208 105.933 27.2708 105.933 26.2351C105.933 25.1875 106.105 24.2346 106.448 23.3764C106.792 22.5123 107.277 21.7695 107.904 21.1481C108.532 20.5207 109.277 20.0384 110.142 19.701C111.006 19.3577 111.962 19.1861 113.009 19.1861H113.71V33.2663H113.009ZM113.009 30.3189H113.426V22.1335H113.009C112.5 22.1335 112.047 22.2401 111.651 22.4531C111.254 22.6662 110.92 22.9592 110.648 23.332C110.375 23.699 110.168 24.131 110.026 24.6282C109.89 25.1254 109.822 25.661 109.822 26.2351C109.822 26.9927 109.946 27.6822 110.195 28.3036C110.443 28.9192 110.807 29.4104 111.287 29.7773C111.766 30.1384 112.34 30.3189 113.009 30.3189ZM116.782 33.2663H116.081V19.1861H116.782C117.83 19.1861 118.786 19.3577 119.65 19.701C120.514 20.0384 121.26 20.5207 121.887 21.1481C122.514 21.7695 123 22.5123 123.343 23.3764C123.686 24.2346 123.858 25.1875 123.858 26.2351C123.858 27.2708 123.686 28.2208 123.343 29.0849C123 29.9431 122.514 30.6858 121.887 31.3132C121.26 31.9347 120.514 32.417 119.65 32.7603C118.786 33.0977 117.83 33.2663 116.782 33.2663ZM116.782 30.3189C117.291 30.3189 117.744 30.2153 118.14 30.0082C118.537 29.7951 118.871 29.5021 119.144 29.1293C119.416 28.7564 119.623 28.3243 119.765 27.8331C119.907 27.3359 119.978 26.8033 119.978 26.2351C119.978 25.4716 119.851 24.7821 119.596 24.1665C119.348 23.5451 118.987 23.0509 118.513 22.6839C118.04 22.317 117.463 22.1335 116.782 22.1335H116.365V30.3189H116.782ZM129.946 28.0107L134.855 19.3636H138.584V33H134.98V24.3263L130.088 33H126.333V19.3636H129.946V28.0107ZM141.616 38.1136V19.3636H145.344V21.6541H145.513C145.679 21.2872 145.919 20.9143 146.232 20.5355C146.552 20.1508 146.966 19.8312 147.475 19.5767C147.99 19.3163 148.629 19.1861 149.393 19.1861C150.387 19.1861 151.304 19.4465 152.145 19.9673C152.985 20.4822 153.657 21.2605 154.16 22.3022C154.663 23.3379 154.915 24.6371 154.915 26.1996C154.915 27.7206 154.669 29.005 154.178 30.0526C153.693 31.0942 153.03 31.8844 152.189 32.4229C151.355 32.9556 150.42 33.2219 149.384 33.2219C148.65 33.2219 148.026 33.1006 147.511 32.858C147.002 32.6153 146.584 32.3105 146.259 31.9435C145.933 31.5707 145.685 31.1948 145.513 30.8161H145.398V38.1136H141.616ZM145.318 26.1818C145.318 26.9927 145.43 27.6999 145.655 28.3036C145.88 28.9073 146.206 29.3778 146.632 29.7152C147.058 30.0466 147.576 30.2124 148.185 30.2124C148.801 30.2124 149.322 30.0437 149.748 29.7063C150.174 29.363 150.497 28.8896 150.716 28.2859C150.94 27.6763 151.053 26.9749 151.053 26.1818C151.053 25.3946 150.943 24.7022 150.724 24.1044C150.505 23.5066 150.183 23.0391 149.757 22.7017C149.331 22.3643 148.807 22.1957 148.185 22.1957C147.57 22.1957 147.049 22.3584 146.623 22.6839C146.203 23.0095 145.88 23.4711 145.655 24.0689C145.43 24.6667 145.318 25.371 145.318 26.1818ZM163.597 33.2663C162.218 33.2663 161.026 32.9734 160.019 32.3874C159.019 31.7956 158.247 30.9729 157.702 29.9194C157.158 28.86 156.886 27.6319 156.886 26.2351C156.886 24.8265 157.158 23.5954 157.702 22.5419C158.247 21.4825 159.019 20.6598 160.019 20.0739C161.026 19.482 162.218 19.1861 163.597 19.1861C164.976 19.1861 166.166 19.482 167.166 20.0739C168.172 20.6598 168.948 21.4825 169.492 22.5419C170.037 23.5954 170.309 24.8265 170.309 26.2351C170.309 27.6319 170.037 28.86 169.492 29.9194C168.948 30.9729 168.172 31.7956 167.166 32.3874C166.166 32.9734 164.976 33.2663 163.597 33.2663ZM163.615 30.3366C164.242 30.3366 164.766 30.1591 165.186 29.804C165.607 29.4429 165.923 28.9517 166.136 28.3303C166.355 27.7088 166.465 27.0015 166.465 26.2085C166.465 25.4154 166.355 24.7081 166.136 24.0866C165.923 23.4652 165.607 22.974 165.186 22.6129C164.766 22.2519 164.242 22.0714 163.615 22.0714C162.982 22.0714 162.449 22.2519 162.017 22.6129C161.591 22.974 161.268 23.4652 161.049 24.0866C160.836 24.7081 160.73 25.4154 160.73 26.2085C160.73 27.0015 160.836 27.7088 161.049 28.3303C161.268 28.9517 161.591 29.4429 162.017 29.804C162.449 30.1591 162.982 30.3366 163.615 30.3366ZM181.264 24.0334V27.0341H172.972V24.0334H181.264ZM190.648 33.2663C189.251 33.2663 188.05 32.9704 187.044 32.3786C186.043 31.7808 185.274 30.9522 184.735 29.8928C184.203 28.8333 183.936 27.6141 183.936 26.2351C183.936 24.8383 184.206 23.6132 184.744 22.5597C185.289 21.5002 186.061 20.6746 187.061 20.0827C188.062 19.485 189.251 19.1861 190.63 19.1861C191.82 19.1861 192.862 19.4021 193.755 19.8342C194.649 20.2662 195.356 20.8729 195.877 21.6541C196.398 22.4354 196.685 23.3527 196.738 24.4062H193.169C193.069 23.7256 192.802 23.1781 192.37 22.7638C191.944 22.3436 191.385 22.1335 190.692 22.1335C190.106 22.1335 189.595 22.2933 189.157 22.6129C188.725 22.9266 188.387 23.3853 188.144 23.989C187.902 24.5927 187.78 25.3236 187.78 26.1818C187.78 27.0518 187.899 27.7917 188.136 28.4013C188.378 29.0109 188.719 29.4755 189.157 29.7951C189.595 30.1147 190.106 30.2745 190.692 30.2745C191.124 30.2745 191.512 30.1857 191.855 30.0082C192.205 29.8306 192.492 29.5732 192.717 29.2358C192.947 28.8925 193.098 28.4812 193.169 28.0018H196.738C196.679 29.0434 196.395 29.9608 195.886 30.7539C195.383 31.5411 194.687 32.1566 193.8 32.6005C192.912 33.0444 191.861 33.2663 190.648 33.2663ZM198.361 33L198.343 29.9993H198.796C199.115 29.9993 199.39 29.9223 199.621 29.7685C199.858 29.6087 200.053 29.3512 200.207 28.9961C200.361 28.641 200.482 28.1705 200.571 27.5845C200.66 26.9927 200.719 26.2647 200.749 25.4006L200.971 19.3636H211.34V33H207.736V22.3377H204.371L204.158 26.5014C204.105 27.6437 203.966 28.6262 203.741 29.4489C203.522 30.2715 203.217 30.9463 202.826 31.473C202.436 31.9938 201.965 32.3786 201.415 32.6271C200.864 32.8757 200.225 33 199.497 33H198.361ZM218.16 33.2575C217.29 33.2575 216.515 33.1065 215.834 32.8047C215.154 32.4969 214.615 32.0442 214.219 31.4464C213.828 30.8427 213.633 30.091 213.633 29.1914C213.633 28.4338 213.772 27.7976 214.05 27.2827C214.328 26.7678 214.707 26.3535 215.186 26.0398C215.666 25.7261 216.21 25.4893 216.82 25.3295C217.435 25.1697 218.081 25.0573 218.755 24.9922C219.548 24.9093 220.188 24.8324 220.673 24.7614C221.158 24.6844 221.51 24.572 221.729 24.424C221.948 24.276 222.058 24.0571 222.058 23.767V23.7138C222.058 23.1515 221.88 22.7165 221.525 22.4087C221.176 22.101 220.679 21.9471 220.034 21.9471C219.353 21.9471 218.812 22.098 218.409 22.3999C218.007 22.6958 217.74 23.0687 217.61 23.5185L214.112 23.2344C214.29 22.4058 214.639 21.6896 215.16 21.0859C215.681 20.4763 216.352 20.0088 217.175 19.6832C218.004 19.3518 218.962 19.1861 220.051 19.1861C220.809 19.1861 221.534 19.2749 222.227 19.4524C222.925 19.63 223.543 19.9052 224.082 20.2781C224.626 20.6509 225.056 21.1303 225.369 21.7163C225.683 22.2963 225.84 22.9917 225.84 23.8026V33H222.253V31.109H222.147C221.928 31.5352 221.635 31.911 221.268 32.2365C220.901 32.5561 220.46 32.8076 219.945 32.9911C219.43 33.1687 218.835 33.2575 218.16 33.2575ZM219.244 30.6474C219.8 30.6474 220.291 30.5379 220.717 30.3189C221.143 30.094 221.478 29.7921 221.72 29.4134C221.963 29.0346 222.084 28.6055 222.084 28.1261V26.679C221.966 26.7559 221.803 26.8269 221.596 26.892C221.395 26.9512 221.167 27.0075 220.913 27.0607C220.658 27.1081 220.404 27.1525 220.149 27.1939C219.895 27.2294 219.664 27.262 219.457 27.2915C219.013 27.3567 218.625 27.4602 218.294 27.6023C217.962 27.7443 217.705 27.9367 217.521 28.1793C217.338 28.4161 217.246 28.712 217.246 29.0671C217.246 29.582 217.432 29.9756 217.805 30.2479C218.184 30.5142 218.664 30.6474 219.244 30.6474ZM234.935 33.2663C233.538 33.2663 232.337 32.9704 231.331 32.3786C230.331 31.7808 229.561 30.9522 229.023 29.8928C228.49 28.8333 228.224 27.6141 228.224 26.2351C228.224 24.8383 228.493 23.6132 229.031 22.5597C229.576 21.5002 230.348 20.6746 231.349 20.0827C232.349 19.485 233.538 19.1861 234.917 19.1861C236.107 19.1861 237.149 19.4021 238.042 19.8342C238.936 20.2662 239.643 20.8729 240.164 21.6541C240.685 22.4354 240.972 23.3527 241.025 24.4062H237.456C237.356 23.7256 237.09 23.1781 236.657 22.7638C236.231 22.3436 235.672 22.1335 234.98 22.1335C234.394 22.1335 233.882 22.2933 233.444 22.6129C233.012 22.9266 232.674 23.3853 232.432 23.989C232.189 24.5927 232.068 25.3236 232.068 26.1818C232.068 27.0518 232.186 27.7917 232.423 28.4013C232.665 29.0109 233.006 29.4755 233.444 29.7951C233.882 30.1147 234.394 30.2745 234.98 30.2745C235.412 30.2745 235.799 30.1857 236.143 30.0082C236.492 29.8306 236.779 29.5732 237.004 29.2358C237.235 28.8925 237.385 28.4812 237.456 28.0018H241.025C240.966 29.0434 240.682 29.9608 240.173 30.7539C239.67 31.5411 238.975 32.1566 238.087 32.6005C237.199 33.0444 236.148 33.2663 234.935 33.2663ZM242.517 22.3377V19.3636H254.875V22.3377H250.48V33H246.876V22.3377H242.517ZM260.781 28.0107L265.69 19.3636H269.419V33H265.814V24.3263L260.923 33H257.167V19.3636H260.781V28.0107ZM105.709 53.9091C105.709 55.8918 105.333 57.5786 104.582 58.9695C103.836 60.3603 102.818 61.4227 101.528 62.1566C100.244 62.8846 98.7994 63.2486 97.1954 63.2486C95.5797 63.2486 94.1296 62.8816 92.8453 62.1477C91.561 61.4138 90.5459 60.3514 89.8002 58.9606C89.0545 57.5697 88.6816 55.8859 88.6816 53.9091C88.6816 51.9264 89.0545 50.2396 89.8002 48.8487C90.5459 47.4579 91.561 46.3984 92.8453 45.6705C94.1296 44.9366 95.5797 44.5696 97.1954 44.5696C98.7994 44.5696 100.244 44.9366 101.528 45.6705C102.818 46.3984 103.836 47.4579 104.582 48.8487C105.333 50.2396 105.709 51.9264 105.709 53.9091ZM101.812 53.9091C101.812 52.6248 101.62 51.5417 101.235 50.6598C100.856 49.7779 100.32 49.1091 99.628 48.6534C98.9355 48.1977 98.1247 47.9698 97.1954 47.9698C96.2662 47.9698 95.4554 48.1977 94.7629 48.6534C94.0704 49.1091 93.5319 49.7779 93.1472 50.6598C92.7684 51.5417 92.579 52.6248 92.579 53.9091C92.579 55.1934 92.7684 56.2765 93.1472 57.1584C93.5319 58.0402 94.0704 58.709 94.7629 59.1648C95.4554 59.6205 96.2662 59.8484 97.1954 59.8484C98.1247 59.8484 98.9355 59.6205 99.628 59.1648C100.32 58.709 100.856 58.0402 101.235 57.1584C101.62 56.2765 101.812 55.1934 101.812 53.9091ZM109.549 63.2308C108.963 63.2308 108.46 63.0237 108.04 62.6094C107.625 62.1892 107.418 61.6861 107.418 61.1001C107.418 60.5201 107.625 60.023 108.04 59.6087C108.46 59.1944 108.963 58.9872 109.549 58.9872C110.117 58.9872 110.614 59.1944 111.04 59.6087C111.467 60.023 111.68 60.5201 111.68 61.1001C111.68 61.4908 111.579 61.8488 111.378 62.1744C111.182 62.494 110.925 62.7514 110.605 62.9467C110.286 63.1361 109.934 63.2308 109.549 63.2308ZM130.898 51.1836H127.009C126.938 50.6805 126.793 50.2337 126.574 49.843C126.355 49.4465 126.074 49.1091 125.731 48.831C125.388 48.5528 124.991 48.3397 124.541 48.1918C124.098 48.0438 123.615 47.9698 123.094 47.9698C122.153 47.9698 121.334 48.2036 120.635 48.6712C119.937 49.1328 119.395 49.8075 119.011 50.6953C118.626 51.5772 118.433 52.6484 118.433 53.9091C118.433 55.2053 118.626 56.2943 119.011 57.1761C119.401 58.058 119.946 58.7238 120.644 59.1737C121.342 59.6235 122.15 59.8484 123.068 59.8484C123.583 59.8484 124.059 59.7803 124.497 59.6442C124.941 59.508 125.335 59.3098 125.678 59.0494C126.021 58.783 126.305 58.4605 126.53 58.0817C126.761 57.7029 126.921 57.2708 127.009 56.7855L130.898 56.8033C130.797 57.6378 130.546 58.4427 130.143 59.218C129.747 59.9875 129.211 60.677 128.536 61.2866C127.868 61.8903 127.069 62.3697 126.139 62.7248C125.216 63.074 124.172 63.2486 123.006 63.2486C121.384 63.2486 119.934 62.8816 118.655 62.1477C117.383 61.4138 116.377 60.3514 115.637 58.9606C114.903 57.5697 114.536 55.8859 114.536 53.9091C114.536 51.9264 114.909 50.2396 115.655 48.8487C116.4 47.4579 117.413 46.3984 118.691 45.6705C119.969 44.9366 121.408 44.5696 123.006 44.5696C124.059 44.5696 125.036 44.7176 125.935 45.0135C126.841 45.3094 127.643 45.7415 128.341 46.3097C129.04 46.8719 129.608 47.5614 130.046 48.3782C130.49 49.195 130.774 50.1301 130.898 51.1836ZM137.197 58.0107L142.106 49.3636H145.835V63H142.231V54.3263L137.339 63H133.583V49.3636H137.197V58.0107ZM156.928 58.8185L160.621 49.3636H163.497L158.18 63H155.667L150.474 49.3636H153.341L156.928 58.8185ZM152.48 49.3636V63H148.867V49.3636H152.48ZM161.562 63V49.3636H165.131V63H161.562ZM171.945 63.2575C171.075 63.2575 170.299 63.1065 169.619 62.8047C168.938 62.4969 168.399 62.0442 168.003 61.4464C167.612 60.8427 167.417 60.091 167.417 59.1914C167.417 58.4338 167.556 57.7976 167.834 57.2827C168.112 56.7678 168.491 56.3535 168.971 56.0398C169.45 55.7261 169.994 55.4893 170.604 55.3295C171.22 55.1697 171.865 55.0573 172.539 54.9922C173.333 54.9093 173.972 54.8324 174.457 54.7614C174.942 54.6844 175.295 54.572 175.514 54.424C175.733 54.276 175.842 54.0571 175.842 53.767V53.7138C175.842 53.1515 175.664 52.7165 175.309 52.4087C174.96 52.101 174.463 51.9471 173.818 51.9471C173.137 51.9471 172.596 52.098 172.193 52.3999C171.791 52.6958 171.524 53.0687 171.394 53.5185L167.896 53.2344C168.074 52.4058 168.423 51.6896 168.944 51.0859C169.465 50.4763 170.137 50.0088 170.959 49.6832C171.788 49.3518 172.747 49.1861 173.836 49.1861C174.593 49.1861 175.318 49.2749 176.011 49.4524C176.709 49.63 177.328 49.9052 177.866 50.2781C178.411 50.6509 178.84 51.1303 179.153 51.7163C179.467 52.2963 179.624 52.9917 179.624 53.8026V63H176.037V61.109H175.931C175.712 61.5352 175.419 61.911 175.052 62.2365C174.685 62.5561 174.244 62.8076 173.729 62.9911C173.214 63.1687 172.619 63.2575 171.945 63.2575ZM173.028 60.6474C173.584 60.6474 174.075 60.5379 174.501 60.3189C174.928 60.094 175.262 59.7921 175.505 59.4134C175.747 59.0346 175.869 58.6055 175.869 58.1261V56.679C175.75 56.7559 175.588 56.8269 175.38 56.892C175.179 56.9512 174.951 57.0075 174.697 57.0607C174.442 57.1081 174.188 57.1525 173.933 57.1939C173.679 57.2294 173.448 57.262 173.241 57.2915C172.797 57.3567 172.409 57.4602 172.078 57.6023C171.746 57.7443 171.489 57.9367 171.305 58.1793C171.122 58.4161 171.03 58.712 171.03 59.0671C171.03 59.582 171.217 59.9756 171.59 60.2479C171.968 60.5142 172.448 60.6474 173.028 60.6474ZM182.558 49.3636H186.171V59.9993H190.015V49.3636H193.629V59.9993H197.473V49.3636H201.086V63H182.558V49.3636ZM210.179 63.2663C208.8 63.2663 207.608 62.9734 206.602 62.3874C205.601 61.7956 204.829 60.9729 204.284 59.9194C203.74 58.86 203.468 57.6319 203.468 56.2351C203.468 54.8265 203.74 53.5954 204.284 52.5419C204.829 51.4825 205.601 50.6598 206.602 50.0739C207.608 49.482 208.8 49.1861 210.179 49.1861C211.558 49.1861 212.748 49.482 213.748 50.0739C214.754 50.6598 215.53 51.4825 216.074 52.5419C216.619 53.5954 216.891 54.8265 216.891 56.2351C216.891 57.6319 216.619 58.86 216.074 59.9194C215.53 60.9729 214.754 61.7956 213.748 62.3874C212.748 62.9734 211.558 63.2663 210.179 63.2663ZM210.197 60.3366C210.824 60.3366 211.348 60.1591 211.768 59.804C212.189 59.4429 212.505 58.9517 212.718 58.3303C212.937 57.7088 213.047 57.0015 213.047 56.2085C213.047 55.4154 212.937 54.7081 212.718 54.0866C212.505 53.4652 212.189 52.974 211.768 52.6129C211.348 52.2519 210.824 52.0714 210.197 52.0714C209.564 52.0714 209.031 52.2519 208.599 52.6129C208.173 52.974 207.85 53.4652 207.631 54.0866C207.418 54.7081 207.312 55.4154 207.312 56.2085C207.312 57.0015 207.418 57.7088 207.631 58.3303C207.85 58.9517 208.173 59.4429 208.599 59.804C209.031 60.1591 209.564 60.3366 210.197 60.3366ZM219.35 63V49.3636H225.165C226.846 49.3636 228.175 49.6832 229.151 50.3224C230.128 50.9616 230.616 51.8701 230.616 53.0479C230.616 53.7878 230.341 54.4033 229.79 54.8945C229.24 55.3858 228.477 55.7172 227.5 55.8888C228.317 55.948 229.012 56.1345 229.586 56.4482C230.166 56.7559 230.607 57.1554 230.909 57.6467C231.217 58.1379 231.371 58.6824 231.371 59.2802C231.371 60.0555 231.164 60.7214 230.749 61.2777C230.341 61.834 229.74 62.2602 228.947 62.5561C228.16 62.852 227.198 63 226.062 63H219.35ZM222.875 60.168H226.062C226.588 60.168 227 60.0437 227.296 59.7951C227.598 59.5406 227.749 59.1944 227.749 58.7564C227.749 58.2711 227.598 57.8893 227.296 57.6112C227 57.333 226.588 57.1939 226.062 57.1939H222.875V60.168ZM222.875 54.9744H225.245C225.624 54.9744 225.946 54.9212 226.213 54.8146C226.485 54.7022 226.692 54.5424 226.834 54.3352C226.982 54.1281 227.056 53.8825 227.056 53.5984C227.056 53.1781 226.887 52.8497 226.55 52.6129C226.213 52.3762 225.751 52.2578 225.165 52.2578H222.875V54.9744ZM239.916 63.2663C238.537 63.2663 237.344 62.9734 236.338 62.3874C235.338 61.7956 234.565 60.9729 234.021 59.9194C233.476 58.86 233.204 57.6319 233.204 56.2351C233.204 54.8265 233.476 53.5954 234.021 52.5419C234.565 51.4825 235.338 50.6598 236.338 50.0739C237.344 49.482 238.537 49.1861 239.916 49.1861C241.295 49.1861 242.484 49.482 243.485 50.0739C244.491 50.6598 245.266 51.4825 245.811 52.5419C246.355 53.5954 246.627 54.8265 246.627 56.2351C246.627 57.6319 246.355 58.86 245.811 59.9194C245.266 60.9729 244.491 61.7956 243.485 62.3874C242.484 62.9734 241.295 63.2663 239.916 63.2663ZM239.933 60.3366C240.561 60.3366 241.085 60.1591 241.505 59.804C241.925 59.4429 242.242 58.9517 242.455 58.3303C242.674 57.7088 242.783 57.0015 242.783 56.2085C242.783 55.4154 242.674 54.7081 242.455 54.0866C242.242 53.4652 241.925 52.974 241.505 52.6129C241.085 52.2519 240.561 52.0714 239.933 52.0714C239.3 52.0714 238.767 52.2519 238.335 52.6129C237.909 52.974 237.587 53.4652 237.368 54.0866C237.155 54.7081 237.048 55.4154 237.048 56.2085C237.048 57.0015 237.155 57.7088 237.368 58.3303C237.587 58.9517 237.909 59.4429 238.335 59.804C238.767 60.1591 239.3 60.3366 239.933 60.3366ZM252.7 58.0107L257.609 49.3636H261.338V63H257.733V54.3263L252.842 63H249.086V49.3636H252.7V58.0107ZM256.961 44.6051H259.598C259.592 45.6823 259.192 46.5494 258.399 47.2063C257.612 47.8633 256.547 48.1918 255.203 48.1918C253.854 48.1918 252.786 47.8633 251.998 47.2063C251.211 46.5494 250.818 45.6823 250.818 44.6051H253.437C253.431 45.0135 253.561 45.3804 253.827 45.706C254.099 46.0315 254.558 46.1942 255.203 46.1942C255.831 46.1942 256.28 46.0344 256.553 45.7148C256.825 45.3952 256.961 45.0253 256.961 44.6051Z" fill="#A677C4"/>
</svg>
